<svg xmlns="http://www.w3.org/2000/svg" xmlns:xlink="http://www.w3.org/1999/xlink" fill="none" version="1.1" width="14" height="14" viewBox="0 0 14 14"><defs><clipPath id="master_svg0_39_3937"><rect x="0" y="0" width="14" height="14" rx="0"/></clipPath></defs><g clip-path="url(#master_svg0_39_3937)"><g transform="matrix(1,0,0,-1,0,26.8515625)"><g><path d="M14.0001875,19.98828125Q13.9729875,18.40234125,13.0468875,17.11719125Q12.1207875,15.83203125,10.5410875,15.06640125Q8.9885375,14.32812525,7.0274475,14.30078125Q5.5021575,14.30078125,4.1947675,14.79297125Q3.6772575,14.41015625,2.7239475,13.94531225Q1.6889275,13.48046875,0.4904855,13.42578125Q0.2181115,13.42578125,0.0819249,13.69921925Q0.0002127999999999991,13.97265625,0.1908745,14.16406225L0.1908745,14.19140625L0.2181115,14.21875025Q0.2725865,14.27343725,0.3542985,14.38281225Q0.5449595,14.57422125,0.7628585,14.95703125Q1.2258975,15.66797125,1.3620775,16.67969125Q0.0819249,18.10156125,0.0546875,19.98828125Q0.0819249,21.57422125,1.0079945000000001,22.859371250000002Q1.9340675,24.14458125,3.5138275,24.91018125Q5.0663575,25.64848125,7.0274475,25.67578125Q8.9885375,25.64848125,10.5410875,24.91018125Q12.1207875,24.14458125,13.0468875,22.859371250000002Q13.9729875,21.57422125,14.0001875,19.98828125Z" fill="#000000" fill-opacity="1" style="mix-blend-mode:passthrough"/></g></g></g></svg>